<svg xmlns="http://www.w3.org/2000/svg" width="900" height="520" viewBox="0 0 900 520" role="img" aria-labelledby="title desc">
  <title id="title">ROBODRILL 장비 구성 개요</title>
  <desc id="desc">초보자 교육용으로 단순화한 FANUC ROBODRILL 정면 구성 도해</desc>
  <rect width="900" height="520" fill="#f8fafc"/>
  <rect x="120" y="58" width="500" height="392" rx="14" fill="#dfe7ef" stroke="#6b7785" stroke-width="5"/>
  <rect x="160" y="100" width="300" height="250" rx="6" fill="#b9c6d4" stroke="#44515f" stroke-width="4"/>
  <rect x="192" y="130" width="236" height="188" rx="4" fill="#eef7fb" stroke="#6b7785" stroke-width="3"/>
  <rect x="493" y="104" width="82" height="236" rx="6" fill="#f3f5f7" stroke="#6b7785" stroke-width="3"/>
  <circle cx="534" cy="151" r="23" fill="#f6c343" stroke="#725b16" stroke-width="3"/>
  <rect x="513" y="198" width="42" height="92" rx="4" fill="#111827"/>
  <rect x="152" y="370" width="420" height="48" rx="6" fill="#778391"/>
  <rect x="678" y="82" width="118" height="270" rx="10" fill="#243447" stroke="#111827" stroke-width="4"/>
  <rect x="696" y="105" width="82" height="70" rx="4" fill="#d9f1ff"/>
  <circle cx="718" cy="218" r="15" fill="#e23d3d"/>
  <circle cx="759" cy="218" r="15" fill="#3c9b5f"/>
  <rect x="700" y="254" width="74" height="42" rx="4" fill="#f6c343"/>
  <line x1="632" y1="175" x2="678" y2="175" stroke="#44515f" stroke-width="7" stroke-linecap="round"/>
  <text x="370" y="472" fill="#0d4e67" font-family="Arial, Malgun Gothic, sans-serif" font-size="28" font-weight="700" text-anchor="middle">장비 본체와 작업 영역</text>
  <text x="737" y="386" fill="#0d4e67" font-family="Arial, Malgun Gothic, sans-serif" font-size="25" font-weight="700" text-anchor="middle">CNC 패널</text>
</svg>
