<svg xmlns="http://www.w3.org/2000/svg" width="1000" height="720" viewBox="0 0 1000 720" role="img" aria-labelledby="title desc">
<title id="title">기계좌표, 작업좌표, 상대좌표 비교</title>
<desc id="desc">초보자가 CNC 화면, 조작 순서, 장비 움직임을 함께 이해하도록 만든 교육용 도해</desc>
<defs>
  <marker id="arrow-blue" markerWidth="12" markerHeight="12" refX="10" refY="6" orient="auto"><path d="M2,2 L10,6 L2,10 Z" fill="#176f8f"/></marker>
  <marker id="arrow-red" markerWidth="12" markerHeight="12" refX="10" refY="6" orient="auto"><path d="M2,2 L10,6 L2,10 Z" fill="#d64242"/></marker>
  <marker id="arrow-green" markerWidth="12" markerHeight="12" refX="10" refY="6" orient="auto"><path d="M2,2 L10,6 L2,10 Z" fill="#25a55f"/></marker>
</defs>
<rect width="1000" height="720" fill="#ffffff"/>
<rect x="24" y="24" width="952" height="672" rx="20" fill="#ffffff" stroke="#d8dde6" stroke-width="3"/>
<text x="52" y="58" font-size="28" font-weight="800" fill="#0d4e67">기계좌표, 작업좌표, 상대좌표 비교</text>
<g>
<rect x="48" y="84" width="378" height="298" rx="18" fill="#263847" stroke="#0f1d28" stroke-width="5"/>
<rect x="70" y="124" width="334" height="220" rx="6" fill="#eff7fb" stroke="#111827" stroke-width="3"/>
<circle cx="105" cy="368" r="9" fill="#25a55f"/>
<circle cx="142" cy="368" r="9" fill="#e6a319"/>
<circle cx="179" cy="368" r="9" fill="#d64242"/>
<text x="72" y="104" font-size="20" font-weight="800" fill="#ffffff">CNC 화면 예시</text>
<rect x="72" y="146" width="330" height="34" rx="4" fill="#d9f1ff" stroke="#7ea6bd"/>
<text x="90" y="172" font-size="20" font-weight="800" fill="#102d3d">POSITION</text>
<rect x="72" y="188" width="330" height="34" rx="4" fill="#ffffff" stroke="#7ea6bd"/>
<text x="90" y="214" font-size="18" font-weight="500" fill="#102d3d">MACHINE X Y Z</text>
<rect x="72" y="230" width="330" height="34" rx="4" fill="#ffffff" stroke="#7ea6bd"/>
<text x="90" y="256" font-size="18" font-weight="500" fill="#102d3d">WORK G54 X Y Z</text>
<rect x="72" y="272" width="330" height="34" rx="4" fill="#ffffff" stroke="#7ea6bd"/>
<text x="90" y="298" font-size="18" font-weight="500" fill="#102d3d">RELATIVE X Y Z</text>
</g>
<g transform="translate(500 94)">
<text x="0" y="10" font-size="20" font-weight="800" fill="#0d4e67">동작/구조 설명</text>
<rect x="0" y="58" width="350" height="230" rx="16" fill="#f8fafc" stroke="#b8c4d2" stroke-width="3"/>
<rect x="120" y="120" width="120" height="92" fill="#f2c14e" stroke="#7a5a0a" stroke-width="4"/>
<rect x="146" y="74" width="70" height="54" fill="#cbd5e1" stroke="#64748b"/>
<line x1="82" y1="178" x2="260" y2="178" stroke="#d64242" stroke-width="8" marker-end="url(#arrow-red)"/><line x1="260" y1="210" x2="82" y2="210" stroke="#d64242" stroke-width="8" marker-end="url(#arrow-red)"/><text x="132" y="164" font-size="22" font-weight="800" fill="#9b2525">X축 + / -</text><line x1="176" y1="228" x2="176" y2="92" stroke="#176f8f" stroke-width="8" marker-end="url(#arrow-blue)"/><line x1="214" y1="92" x2="214" y2="228" stroke="#176f8f" stroke-width="8" marker-end="url(#arrow-blue)"/><text x="222" y="156" font-size="22" font-weight="800" fill="#0d4e67">Y축</text>
<text x="118" y="258" font-size="19" font-weight="800" fill="#163247">G54 소재 원점</text>
<circle cx="120" cy="212" r="9" fill="#111827"/><text x="134" y="218" font-size="18" font-weight="800" fill="#111827">X0 Y0</text>
</g>
<text x="54" y="492" font-size="22" font-weight="800" fill="#0d4e67">학습 순서</text>
<rect x="54" y="522" width="376" height="48" rx="10" fill="#eef3f8" stroke="#b8c4d2"/>
<circle cx="82" cy="546" r="15" fill="#176f8f"/>
<text x="77" y="553" font-size="18" font-weight="800" fill="#ffffff">1</text>
<text x="110" y="553" font-size="18" font-weight="700" fill="#163247">기계좌표는 장비 기준</text>
<rect x="470" y="522" width="376" height="48" rx="10" fill="#eef3f8" stroke="#b8c4d2"/>
<circle cx="498" cy="546" r="15" fill="#176f8f"/>
<text x="493" y="553" font-size="18" font-weight="800" fill="#ffffff">2</text>
<text x="526" y="553" font-size="18" font-weight="700" fill="#163247">G54는 소재 기준</text>
<rect x="54" y="590" width="376" height="48" rx="10" fill="#eef3f8" stroke="#b8c4d2"/>
<circle cx="82" cy="614" r="15" fill="#176f8f"/>
<text x="77" y="621" font-size="18" font-weight="800" fill="#ffffff">3</text>
<text x="110" y="621" font-size="18" font-weight="700" fill="#163247">상대좌표는 임시 확인용</text>
<rect x="470" y="590" width="376" height="48" rx="10" fill="#eef3f8" stroke="#b8c4d2"/>
<circle cx="498" cy="614" r="15" fill="#176f8f"/>
<text x="493" y="621" font-size="18" font-weight="800" fill="#ffffff">4</text>
<text x="526" y="621" font-size="18" font-weight="700" fill="#163247">값 입력 전 좌표계 이름 확인</text>
</svg>
