<svg xmlns="http://www.w3.org/2000/svg" width="1120" height="780" viewBox="0 0 1120 780" role="img" aria-labelledby="title desc">
<title id="title">Tool Offset CNC 화면 및 조작 패널 mockup</title>
<desc id="desc">Tool Offset 수업에서 화면의 어느 값을 읽고 패널의 어느 버튼을 확인해야 하는지 보여 주는 교육용 mockup</desc>
<defs>
  <marker id="arrow-red" markerWidth="12" markerHeight="12" refX="10" refY="6" orient="auto"><path d="M2,2 L10,6 L2,10 Z" fill="#d64242"/></marker>
  <marker id="arrow-green" markerWidth="12" markerHeight="12" refX="10" refY="6" orient="auto"><path d="M2,2 L10,6 L2,10 Z" fill="#25a55f"/></marker>
</defs>
<rect width="1120" height="780" fill="#ffffff"/>
<rect x="24" y="24" width="1072" height="732" rx="20" fill="#ffffff" stroke="#d8dde6" stroke-width="3"/>
<text x="48" y="58" font-size="27" font-weight="800" fill="#0d4e67">Item 10. Tool Offset - CNC 화면/패널 학습 mockup</text>
<g>
<rect x="46" y="80" width="590" height="500" rx="18" fill="#263847" stroke="#0f1d28" stroke-width="5"/>
<rect x="70" y="116" width="542" height="390" rx="6" fill="#eff7fb" stroke="#0f1d28" stroke-width="3"/>
<rect x="70" y="116" width="542" height="42" rx="6" fill="#0d4e67" stroke="#0d4e67" stroke-width="0"/>
<text x="88" y="144" font-size="20" font-weight="800" fill="#ffffff">TOOL OFFSET</text>
<text x="350" y="144" font-size="16" font-weight="800" fill="#ffffff">MODE OFFSET</text>
<rect x="488" y="124" width="112" height="24" rx="4" fill="#dff7e8" stroke="none" stroke-width="0"/>
<text x="498" y="143" font-size="13" font-weight="800" fill="#17613c">TOOL GEOM</text>
<rect x="72" y="148" width="520" height="40" rx="0" fill="#dcecff" stroke="#9fb0c2" stroke-width="1"/>
<text x="88" y="174" font-size="17" font-weight="800" fill="#102d3d">NO</text>
<text x="228" y="174" font-size="17" font-weight="800" fill="#102d3d">H LENGTH</text>
<text x="404" y="174" font-size="17" font-weight="800" fill="#102d3d">WEAR</text>
<rect x="72" y="194" width="520" height="40" rx="0" fill="#f4f8fb" stroke="#9fb0c2" stroke-width="1"/>
<text x="88" y="220" font-size="18" font-weight="600" fill="#102d3d">01</text>
<text x="228" y="220" font-size="18" font-weight="600" fill="#102d3d">125.430</text>
<text x="404" y="220" font-size="18" font-weight="600" fill="#102d3d">0.000</text>
<rect x="72" y="240" width="520" height="40" rx="0" fill="#ffffff" stroke="#9fb0c2" stroke-width="1"/>
<text x="88" y="266" font-size="18" font-weight="600" fill="#102d3d">02</text>
<text x="228" y="266" font-size="18" font-weight="600" fill="#102d3d">118.220</text>
<text x="404" y="266" font-size="18" font-weight="600" fill="#102d3d">-0.010</text>
<rect x="72" y="286" width="520" height="40" rx="0" fill="#f4f8fb" stroke="#9fb0c2" stroke-width="1"/>
<text x="88" y="312" font-size="18" font-weight="600" fill="#102d3d">03</text>
<text x="228" y="312" font-size="18" font-weight="600" fill="#102d3d">132.000</text>
<text x="404" y="312" font-size="18" font-weight="600" fill="#102d3d">0.000</text>
<rect x="72" y="332" width="520" height="40" rx="0" fill="#ffffff" stroke="#9fb0c2" stroke-width="1"/>
<text x="88" y="358" font-size="18" font-weight="600" fill="#102d3d">INPUT</text>
<text x="228" y="358" font-size="18" font-weight="600" fill="#102d3d">+ / INPUT</text>
<text x="404" y="358" font-size="18" font-weight="600" fill="#102d3d">CONFIRM</text>
<rect x="74" y="512" width="94" height="40" rx="5" fill="#eef6ff" stroke="#8cb6d7" stroke-width="2"/>
<text x="88" y="538" font-size="15" font-weight="800" fill="#0d4e67">OFFSET</text>
<rect x="178" y="512" width="94" height="40" rx="5" fill="#eef6ff" stroke="#8cb6d7" stroke-width="2"/>
<text x="192" y="538" font-size="15" font-weight="800" fill="#0d4e67">GEOM</text>
<rect x="282" y="512" width="94" height="40" rx="5" fill="#eef6ff" stroke="#8cb6d7" stroke-width="2"/>
<text x="296" y="538" font-size="15" font-weight="800" fill="#0d4e67">WEAR</text>
<rect x="386" y="512" width="94" height="40" rx="5" fill="#eef6ff" stroke="#8cb6d7" stroke-width="2"/>
<text x="400" y="538" font-size="15" font-weight="800" fill="#0d4e67">NO.SRH</text>
<rect x="490" y="512" width="94" height="40" rx="5" fill="#eef6ff" stroke="#8cb6d7" stroke-width="2"/>
<text x="504" y="538" font-size="15" font-weight="800" fill="#0d4e67">INPUT</text>
<text x="72" y="612" font-size="18" font-weight="800" fill="#0d4e67">화면 읽기 순서</text>
<text x="72" y="642" font-size="17" font-weight="700" fill="#334155">1. 모드  2. 현재 선택값  3. 실행 조건  4. 하단 소프트키</text>
</g>
<g>
<text x="676" y="88" font-size="22" font-weight="800" fill="#0d4e67">조작 패널 mockup</text>
<rect x="660" y="112" width="390" height="628" rx="18" fill="#e8edf3" stroke="#8da0b6" stroke-width="4"/>
<text x="684" y="152" font-size="16" font-weight="800" fill="#334155">MODE SELECT</text>
<rect x="680" y="198" width="70" height="34" rx="6" fill="#f8fafc" stroke="#94a3b8" stroke-width="2"/>
<text x="688" y="221" font-size="14" font-weight="800" fill="#223344">EDIT</text>
<rect x="760" y="198" width="70" height="34" rx="6" fill="#f8fafc" stroke="#94a3b8" stroke-width="2"/>
<text x="768" y="221" font-size="14" font-weight="800" fill="#223344">MEM</text>
<rect x="840" y="198" width="70" height="34" rx="6" fill="#f8fafc" stroke="#94a3b8" stroke-width="2"/>
<text x="848" y="221" font-size="14" font-weight="800" fill="#223344">MDI</text>
<rect x="680" y="242" width="70" height="34" rx="6" fill="#f8fafc" stroke="#94a3b8" stroke-width="2"/>
<text x="688" y="265" font-size="14" font-weight="800" fill="#223344">JOG</text>
<rect x="760" y="242" width="70" height="34" rx="6" fill="#f8fafc" stroke="#94a3b8" stroke-width="2"/>
<text x="768" y="265" font-size="14" font-weight="800" fill="#223344">HANDLE</text>
<rect x="840" y="242" width="70" height="34" rx="6" fill="#f8fafc" stroke="#94a3b8" stroke-width="2"/>
<text x="848" y="265" font-size="14" font-weight="800" fill="#223344">ZRN</text>
<rect x="704" y="336" width="54" height="34" rx="6" fill="#f8fafc" stroke="#94a3b8" stroke-width="2"/>
<text x="712" y="359" font-size="14" font-weight="800" fill="#223344">+X</text>
<rect x="704" y="422" width="54" height="34" rx="6" fill="#f8fafc" stroke="#94a3b8" stroke-width="2"/>
<text x="712" y="445" font-size="14" font-weight="800" fill="#223344">-X</text>
<rect x="762" y="378" width="54" height="34" rx="6" fill="#f8fafc" stroke="#94a3b8" stroke-width="2"/>
<text x="770" y="401" font-size="14" font-weight="800" fill="#223344">+Y</text>
<rect x="646" y="378" width="54" height="34" rx="6" fill="#f8fafc" stroke="#94a3b8" stroke-width="2"/>
<text x="654" y="401" font-size="14" font-weight="800" fill="#223344">-Y</text>
<rect x="842" y="336" width="54" height="34" rx="6" fill="#f8fafc" stroke="#94a3b8" stroke-width="2"/>
<text x="850" y="359" font-size="14" font-weight="800" fill="#223344">+Z</text>
<rect x="842" y="422" width="54" height="34" rx="6" fill="#f8fafc" stroke="#94a3b8" stroke-width="2"/>
<text x="850" y="445" font-size="14" font-weight="800" fill="#223344">-Z</text>
<rect x="680" y="520" width="108" height="46" rx="6" fill="#f8fafc" stroke="#94a3b8" stroke-width="2"/>
<text x="688" y="543" font-size="11" font-weight="800" fill="#223344">CYCLE START</text>
<rect x="804" y="520" width="108" height="46" rx="6" fill="#f8fafc" stroke="#94a3b8" stroke-width="2"/>
<text x="812" y="543" font-size="14" font-weight="800" fill="#223344">FEED HOLD</text>
<rect x="930" y="198" width="84" height="34" rx="6" fill="#fff3d8" stroke="#d6901f" stroke-width="4"/>
<text x="938" y="221" font-size="14" font-weight="800" fill="#9b2525">RESET</text>
<rect x="930" y="242" width="84" height="34" rx="6" fill="#fff3d8" stroke="#d6901f" stroke-width="4"/>
<text x="938" y="265" font-size="14" font-weight="800" fill="#9b2525">INPUT</text>
<rect x="930" y="286" width="84" height="34" rx="6" fill="#f8fafc" stroke="#94a3b8" stroke-width="2"/>
<text x="938" y="309" font-size="14" font-weight="800" fill="#223344">PROG</text>
<rect x="930" y="330" width="84" height="34" rx="6" fill="#f8fafc" stroke="#94a3b8" stroke-width="2"/>
<text x="938" y="353" font-size="14" font-weight="800" fill="#223344">POS</text>
<rect x="930" y="374" width="84" height="34" rx="6" fill="#fff3d8" stroke="#d6901f" stroke-width="4"/>
<text x="938" y="397" font-size="14" font-weight="800" fill="#9b2525">OFFSET</text>
<rect x="930" y="418" width="84" height="34" rx="6" fill="#f8fafc" stroke="#94a3b8" stroke-width="2"/>
<text x="938" y="441" font-size="14" font-weight="800" fill="#223344">MESSAGE</text>
<rect x="930" y="462" width="84" height="34" rx="6" fill="#f8fafc" stroke="#94a3b8" stroke-width="2"/>
<text x="938" y="485" font-size="14" font-weight="800" fill="#223344">SYSTEM</text>
<rect x="930" y="506" width="84" height="34" rx="6" fill="#f8fafc" stroke="#94a3b8" stroke-width="2"/>
<text x="938" y="529" font-size="14" font-weight="800" fill="#223344">COOLANT</text>
<text x="684" y="318" font-size="16" font-weight="800" fill="#334155">AXIS / DIRECTION</text>
<g>
<circle cx="958" cy="584" r="34" fill="#f1f5f9" stroke="#94a3b8" stroke-width="2"/>
<line x1="958" y1="584" x2="982" y2="562" stroke="#475569" stroke-width="5" stroke-linecap="round"/>
<text x="924" y="638" font-size="13" font-weight="800" fill="#0d4e67">FEED OVR</text>
</g>
<g>
<circle cx="812" cy="650" r="44" fill="#e2e8f0" stroke="#64748b" stroke-width="3"/>
<circle cx="812" cy="650" r="15" fill="#ffffff" stroke="#64748b" stroke-width="3"/>
<path d="M812 598 A52 52 0 0 1 861 650" fill="none" stroke="#25a55f" stroke-width="7" marker-end="url(#arrow-green)"/>
<path d="M812 702 A52 52 0 0 1 763 650" fill="none" stroke="#d64242" stroke-width="7" marker-end="url(#arrow-red)"/>
<text x="877" y="646" font-size="20" font-weight="800" fill="#17613c">+</text>
<text x="736" y="680" font-size="20" font-weight="800" fill="#9b2525">-</text>
<text x="764" y="724" font-size="15" font-weight="800" fill="#0d4e67">MPG HANDLE</text>
</g>
<circle cx="990" cy="696" r="32" fill="#d64242" stroke="#9b2525" stroke-width="5"/>
<text x="964" y="701" font-size="13" font-weight="800" fill="#ffffff">E-STOP</text>
</g>
<rect x="46" y="656" width="590" height="30" rx="6" fill="#eef8f3" stroke="#9bc7af" stroke-width="1"/>
<text x="64" y="677" font-size="16" font-weight="700" fill="#163247">공구번호와 H번호가 일치하는지 먼저 확인한다.</text>
<rect x="46" y="690" width="590" height="30" rx="6" fill="#eef8f3" stroke="#9bc7af" stroke-width="1"/>
<text x="64" y="711" font-size="16" font-weight="700" fill="#163247">마모 보정은 작은 값으로 넣고 입력 후 다시 읽는다.</text>
</svg>
